<mxfile host="app.diagrams.net" modified="2021-01-11T09:30:08.781Z" agent="5.0 (Macintosh; Intel Mac OS X 10_15_7) AppleWebKit/537.36 (KHTML, like Gecko) Chrome/87.0.4280.141 Safari/537.36" etag="AHk0Q9VICvJb2Dnse83p" version="14.1.8" type="github">
  <diagram id="kgpKYQtTHZ0yAKxKKP6v" name="Page-1">
    <mxGraphModel dx="1298" dy="758" grid="1" gridSize="10" guides="1" tooltips="1" connect="1" arrows="1" fold="1" page="1" pageScale="1" pageWidth="850" pageHeight="1100" math="0" shadow="0">
      <root>
        <mxCell id="0" />
        <mxCell id="1" parent="0" />
        <mxCell id="BfP3co8TbG_imm8sUAHu-16" value="" style="edgeStyle=orthogonalEdgeStyle;rounded=0;orthogonalLoop=1;jettySize=auto;html=1;" edge="1" parent="1" source="BfP3co8TbG_imm8sUAHu-14" target="BfP3co8TbG_imm8sUAHu-15">
          <mxGeometry relative="1" as="geometry" />
        </mxCell>
        <mxCell id="BfP3co8TbG_imm8sUAHu-21" style="edgeStyle=orthogonalEdgeStyle;rounded=0;orthogonalLoop=1;jettySize=auto;html=1;exitX=0.5;exitY=1;exitDx=0;exitDy=0;entryX=0.5;entryY=1;entryDx=0;entryDy=0;" edge="1" parent="1" source="BfP3co8TbG_imm8sUAHu-14" target="BfP3co8TbG_imm8sUAHu-19">
          <mxGeometry relative="1" as="geometry" />
        </mxCell>
        <mxCell id="BfP3co8TbG_imm8sUAHu-22" value="图片" style="edgeLabel;html=1;align=center;verticalAlign=middle;resizable=0;points=[];" vertex="1" connectable="0" parent="BfP3co8TbG_imm8sUAHu-21">
          <mxGeometry x="-0.0437" y="-3" relative="1" as="geometry">
            <mxPoint as="offset" />
          </mxGeometry>
        </mxCell>
        <mxCell id="BfP3co8TbG_imm8sUAHu-14" value="解析找靓机EXCEL" style="rounded=1;whiteSpace=wrap;html=1;" vertex="1" parent="1">
          <mxGeometry x="70" y="310" width="120" height="60" as="geometry" />
        </mxCell>
        <mxCell id="BfP3co8TbG_imm8sUAHu-18" value="" style="edgeStyle=orthogonalEdgeStyle;rounded=0;orthogonalLoop=1;jettySize=auto;html=1;" edge="1" parent="1" source="BfP3co8TbG_imm8sUAHu-15" target="BfP3co8TbG_imm8sUAHu-17">
          <mxGeometry relative="1" as="geometry" />
        </mxCell>
        <mxCell id="BfP3co8TbG_imm8sUAHu-15" value="618映射接口" style="rounded=1;whiteSpace=wrap;html=1;" vertex="1" parent="1">
          <mxGeometry x="270" y="310" width="120" height="60" as="geometry" />
        </mxCell>
        <mxCell id="BfP3co8TbG_imm8sUAHu-20" value="" style="edgeStyle=orthogonalEdgeStyle;rounded=0;orthogonalLoop=1;jettySize=auto;html=1;" edge="1" parent="1" source="BfP3co8TbG_imm8sUAHu-17" target="BfP3co8TbG_imm8sUAHu-19">
          <mxGeometry relative="1" as="geometry" />
        </mxCell>
        <mxCell id="BfP3co8TbG_imm8sUAHu-17" value="转转B2C格式" style="whiteSpace=wrap;html=1;rounded=1;" vertex="1" parent="1">
          <mxGeometry x="470" y="310" width="120" height="60" as="geometry" />
        </mxCell>
        <mxCell id="BfP3co8TbG_imm8sUAHu-19" value="标品" style="whiteSpace=wrap;html=1;rounded=1;" vertex="1" parent="1">
          <mxGeometry x="670" y="310" width="120" height="60" as="geometry" />
        </mxCell>
      </root>
    </mxGraphModel>
  </diagram>
</mxfile>
